<?xml version="1.0" encoding="UTF-8" standalone="no"?>
<svg
   height="318.555419921875"
   viewBox="-255 -333.555419921875 630 318.555419921875"
   width="630"
   version="1.1"
   id="svg41"
   sodipodi:docname="Core-2026-06-22_06-09-25Z.svg"
   inkscape:version="1.4.4 (dcaf3e7, 2026-05-05)"
   xmlns:inkscape="http://www.inkscape.org/namespaces/inkscape"
   xmlns:sodipodi="http://sodipodi.sourceforge.net/DTD/sodipodi-0.dtd"
   xmlns="http://www.w3.org/2000/svg"
   xmlns:svg="http://www.w3.org/2000/svg">
  <defs
     id="defs41">
    <marker
       style="overflow:visible"
       id="Triangle"
       refX="0"
       refY="0"
       orient="auto-start-reverse"
       inkscape:stockid="Triangle arrow"
       markerWidth="0.60000002"
       markerHeight="0.60000002"
       viewBox="0 0 1 1"
       inkscape:isstock="true"
       inkscape:collect="always"
       preserveAspectRatio="xMidYMid">
      <path
         transform="scale(0.5)"
         style="fill:context-stroke;fill-rule:evenodd;stroke:context-stroke;stroke-width:1pt"
         d="M 5.77,0 -2.88,5 V -5 Z"
         id="path135" />
    </marker>
    <marker
       style="overflow:visible"
       id="Triangle-4"
       refX="0"
       refY="0"
       orient="auto-start-reverse"
       inkscape:stockid="Triangle arrow"
       markerWidth="0.60000002"
       markerHeight="0.60000002"
       viewBox="0 0 1 1"
       inkscape:isstock="true"
       inkscape:collect="always"
       preserveAspectRatio="xMidYMid">
      <path
         transform="scale(0.5)"
         style="fill:context-stroke;fill-rule:evenodd;stroke:context-stroke;stroke-width:1pt"
         d="M 5.77,0 -2.88,5 V -5 Z"
         id="path135-9" />
    </marker>
    <marker
       style="overflow:visible"
       id="Triangle-8"
       refX="0"
       refY="0"
       orient="auto-start-reverse"
       inkscape:stockid="Triangle arrow"
       markerWidth="0.60000002"
       markerHeight="0.60000002"
       viewBox="0 0 1 1"
       inkscape:isstock="true"
       inkscape:collect="always"
       preserveAspectRatio="xMidYMid">
      <path
         transform="scale(0.5)"
         style="fill:context-stroke;fill-rule:evenodd;stroke:context-stroke;stroke-width:1pt"
         d="M 5.77,0 -2.88,5 V -5 Z"
         id="path135-5" />
    </marker>
    <marker
       style="overflow:visible"
       id="Triangle-44"
       refX="0"
       refY="0"
       orient="auto-start-reverse"
       inkscape:stockid="Triangle arrow"
       markerWidth="0.60000002"
       markerHeight="0.60000002"
       viewBox="0 0 1 1"
       inkscape:isstock="true"
       inkscape:collect="always"
       preserveAspectRatio="xMidYMid">
      <path
         transform="scale(0.5)"
         style="fill:context-stroke;fill-rule:evenodd;stroke:context-stroke;stroke-width:1pt"
         d="M 5.77,0 -2.88,5 V -5 Z"
         id="path135-59" />
    </marker>
    <marker
       style="overflow:visible"
       id="Triangle-4-7"
       refX="0"
       refY="0"
       orient="auto-start-reverse"
       inkscape:stockid="Triangle arrow"
       markerWidth="0.60000002"
       markerHeight="0.60000002"
       viewBox="0 0 1 1"
       inkscape:isstock="true"
       inkscape:collect="always"
       preserveAspectRatio="xMidYMid">
      <path
         transform="scale(0.5)"
         style="fill:context-stroke;fill-rule:evenodd;stroke:context-stroke;stroke-width:1pt"
         d="M 5.77,0 -2.88,5 V -5 Z"
         id="path135-9-5" />
    </marker>
    <marker
       style="overflow:visible"
       id="Triangle-8-3"
       refX="0"
       refY="0"
       orient="auto-start-reverse"
       inkscape:stockid="Triangle arrow"
       markerWidth="0.60000002"
       markerHeight="0.60000002"
       viewBox="0 0 1 1"
       inkscape:isstock="true"
       inkscape:collect="always"
       preserveAspectRatio="xMidYMid">
      <path
         transform="scale(0.5)"
         style="fill:context-stroke;fill-rule:evenodd;stroke:context-stroke;stroke-width:1pt"
         d="M 5.77,0 -2.88,5 V -5 Z"
         id="path135-5-9" />
    </marker>
  </defs>
  <sodipodi:namedview
     id="namedview41"
     pagecolor="#ffffff"
     bordercolor="#000000"
     borderopacity="0.25"
     inkscape:showpageshadow="2"
     inkscape:pageopacity="0.0"
     inkscape:pagecheckerboard="0"
     inkscape:deskcolor="#d1d1d1"
     inkscape:zoom="3.6261599"
     inkscape:cx="244.4735"
     inkscape:cy="162.01712"
     inkscape:window-width="1849"
     inkscape:window-height="1366"
     inkscape:window-x="8"
     inkscape:window-y="38"
     inkscape:window-maximized="0"
     inkscape:current-layer="svg41" />
  <svg
     width="40"
     height="40"
     viewBox="-20 -20 40 40"
     x="60"
     y="-260"
     version="1.1"
     id="svg29"
     style="display:inline"
     inkscape:label="core1">
    <circle
       cx="0"
       cy="0"
       fill="#66b2ff"
       r="20"
       id="circle25" />
    <path
       d="m -1.41,-1.41 -7.99,0.49 2.82,-2.83 -7.56,-7.56 2.83,-2.83 7.56,7.56 2.83,-2.82 z"
       fill="#ffffff"
       id="path26" />
    <path
       d="M 12.73,-12.73 13.22,-4.74 10.39,-7.57 2.83,0 0,-2.83 7.57,-10.39 4.74,-13.22 Z"
       fill="#ffffff"
       id="path27" />
    <path
       d="M 1.41,1.41 9.4,0.92 6.58,3.75 14.14,11.31 11.31,14.14 3.75,6.58 0.92,9.4 Z"
       fill="#ffffff"
       id="path28" />
    <path
       d="M -12.73,12.73 -13.22,4.74 -10.39,7.57 -2.83,0 0,2.83 l -7.57,7.56 2.83,2.83 z"
       fill="#ffffff"
       id="path29" />
  </svg>
  <path
     fill="#000000"
     d="m 67.87,-265.4 v 0 q -1.39,0 -2.16,-0.86 -0.76,-0.86 -0.76,-2.43 v 0 q 0,-1.61 0.77,-2.49 0.78,-0.87 2.22,-0.87 v 0 q 0.46,0 0.92,0.09 0.46,0.1 0.73,0.24 v 0 l -0.3,0.83 q -0.32,-0.13 -0.7,-0.22 -0.38,-0.08 -0.68,-0.08 v 0 q -1.95,0 -1.95,2.49 v 0 q 0,1.19 0.47,1.82 0.48,0.63 1.42,0.63 v 0 q 0.8,0 1.64,-0.34 v 0 0.86 q -0.64,0.33 -1.62,0.33 z m 8.69,-3.33 v 0 q 0,1.57 -0.79,2.45 -0.79,0.88 -2.19,0.88 v 0 q -0.86,0 -1.53,-0.4 -0.66,-0.41 -1.03,-1.16 -0.36,-0.76 -0.36,-1.77 v 0 q 0,-1.57 0.79,-2.45 0.78,-0.87 2.18,-0.87 v 0 q 1.34,0 2.14,0.89 0.79,0.9 0.79,2.43 z m -4.89,0 v 0 q 0,1.23 0.49,1.87 0.49,0.65 1.45,0.65 v 0 q 0.95,0 1.45,-0.64 0.49,-0.65 0.49,-1.88 v 0 q 0,-1.23 -0.49,-1.86 -0.5,-0.64 -1.46,-0.64 v 0 q -0.96,0 -1.45,0.63 -0.48,0.63 -0.48,1.87 z m 9.53,-3.32 v 0 q 0.42,0 0.76,0.07 v 0 l -0.13,0.9 q -0.4,-0.09 -0.7,-0.09 v 0 q -0.78,0 -1.34,0.63 -0.55,0.64 -0.55,1.58 v 0 3.44 h -0.97 v -6.42 h 0.8 l 0.11,1.19 h 0.05 q 0.35,-0.63 0.86,-0.96 0.5,-0.34 1.11,-0.34 z m 4.68,6.65 v 0 q -1.43,0 -2.25,-0.87 -0.82,-0.86 -0.82,-2.4 v 0 q 0,-1.56 0.76,-2.47 0.77,-0.91 2.06,-0.91 v 0 q 1.2,0 1.91,0.79 0.7,0.79 0.7,2.09 v 0 0.62 h -4.43 q 0.03,1.13 0.58,1.72 0.54,0.58 1.52,0.58 v 0 q 1.04,0 2.05,-0.43 v 0 0.87 q -0.51,0.22 -0.97,0.31 -0.46,0.1 -1.11,0.1 z m -0.27,-5.84 v 0 q -0.77,0 -1.23,0.5 -0.46,0.51 -0.54,1.4 v 0 h 3.36 q 0,-0.92 -0.41,-1.41 -0.41,-0.49 -1.18,-0.49 z m 7.44,-2.84 v 8.56 h -0.94 v -6.1 q 0,-0.76 0.04,-1.44 v 0 q -0.12,0.12 -0.27,0.26 -0.16,0.13 -1.4,1.14 v 0 l -0.51,-0.67 2.26,-1.75 z"
     id="path30"
     style="display:inline" />
  <svg
     width="40"
     height="40"
     viewBox="-20 -20 40 40"
     x="60"
     y="-100"
     version="1.1"
     id="svg34"
     style="display:inline"
     inkscape:label="core2">
    <circle
       cx="0"
       cy="0"
       fill="#66b2ff"
       r="20"
       id="circle30" />
    <path
       d="m -1.41,-1.41 -7.99,0.49 2.82,-2.83 -7.56,-7.56 2.83,-2.83 7.56,7.56 2.83,-2.82 z"
       fill="#ffffff"
       id="path31" />
    <path
       d="M 12.73,-12.73 13.22,-4.74 10.39,-7.57 2.83,0 0,-2.83 7.57,-10.39 4.74,-13.22 Z"
       fill="#ffffff"
       id="path32" />
    <path
       d="M 1.41,1.41 9.4,0.92 6.58,3.75 14.14,11.31 11.31,14.14 3.75,6.58 0.92,9.4 Z"
       fill="#ffffff"
       id="path33" />
    <path
       d="M -12.73,12.73 -13.22,4.74 -10.39,7.57 -2.83,0 0,2.83 l -7.57,7.56 2.83,2.83 z"
       fill="#ffffff"
       id="path34" />
  </svg>
  <path
     fill="#000000"
     d="m 68.145774,-47.763271 v 0 q -1.39,0 -2.16,-0.86 -0.76,-0.86 -0.76,-2.43 v 0 q 0,-1.61 0.77,-2.49 0.78,-0.87 2.22,-0.87 v 0 q 0.46,0 0.92,0.09 0.46,0.1 0.73,0.24 v 0 l -0.3,0.83 q -0.32,-0.13 -0.7,-0.22 -0.38,-0.08 -0.68,-0.08 v 0 q -1.95,0 -1.95,2.49 v 0 q 0,1.19 0.47,1.82 0.48,0.63 1.42,0.63 v 0 q 0.8,0 1.64,-0.34 v 0 0.86 q -0.64,0.33 -1.62,0.33 z m 8.69,-3.33 v 0 q 0,1.57 -0.79,2.45 -0.79,0.88 -2.19,0.88 v 0 q -0.86,0 -1.53,-0.4 -0.66,-0.41 -1.03,-1.16 -0.36,-0.76 -0.36,-1.77 v 0 q 0,-1.57 0.79,-2.45 0.78,-0.87 2.18,-0.87 v 0 q 1.34,0 2.14,0.89 0.79,0.9 0.79,2.43 z m -4.89,0 v 0 q 0,1.23 0.49,1.87 0.49,0.65 1.45,0.65 v 0 q 0.95,0 1.45,-0.64 0.49,-0.65 0.49,-1.88 v 0 q 0,-1.23 -0.49,-1.86 -0.5,-0.64 -1.46,-0.64 v 0 q -0.96,0 -1.45,0.63 -0.48,0.63 -0.48,1.87 z m 9.53,-3.32 v 0 q 0.42,0 0.76,0.07 v 0 l -0.13,0.9 q -0.4,-0.09 -0.7,-0.09 v 0 q -0.78,0 -1.34,0.63 -0.55,0.64 -0.55,1.58 v 0 3.44 h -0.97 v -6.42 h 0.8 l 0.11,1.19 h 0.05 q 0.35,-0.63 0.86,-0.96 0.5,-0.34 1.11,-0.34 z m 4.68,6.65 v 0 q -1.43,0 -2.25,-0.87 -0.82,-0.86 -0.82,-2.4 v 0 q 0,-1.56 0.76,-2.47 0.77,-0.91 2.06,-0.91 v 0 q 1.2,0 1.91,0.79 0.7,0.79 0.7,2.09 v 0 0.62 h -4.43 q 0.03,1.13 0.58,1.72 0.54,0.58 1.52,0.58 v 0 q 1.04,0 2.05,-0.43 v 0 0.87 q -0.51,0.22 -0.97,0.31 -0.46,0.1 -1.11,0.1 z m -0.27,-5.84 v 0 q -0.77,0 -1.23,0.5 -0.46,0.51 -0.54,1.4 v 0 h 3.36 q 0,-0.92 -0.41,-1.41 -0.41,-0.49 -1.18,-0.49 z m 9.47,4.82 v 0.9 h -5.63 v -0.83 l 2.26,-2.27 q 1.03,-1.04 1.36,-1.49 0.32,-0.44 0.49,-0.87 0.16,-0.42 0.16,-0.9 v 0 q 0,-0.69 -0.41,-1.09 -0.42,-0.4 -1.16,-0.4 v 0 q -0.53,0 -1.01,0.17 -0.48,0.18 -1.06,0.64 v 0 l -0.52,-0.66 q 1.19,-0.99 2.58,-0.99 v 0 q 1.21,0 1.89,0.62 0.69,0.62 0.69,1.66 v 0 q 0,0.82 -0.46,1.62 -0.46,0.79 -1.71,2.01 v 0 l -1.87,1.84 v 0.04 z"
     id="path35"
     style="display:inline" />
  <svg
     width="100"
     height="60"
     viewBox="-50 -30 100 60"
     x="-250"
     y="-190"
     version="1.1"
     id="svg36"
     style="display:inline"
     inkscape:label="campus">
    <path
       d="M -28,28 A 20,20 0 0 1 -32.7,-11.44 20,20 0 0 1 0,-23.2 20,20 0 0 1 32.7,-11.44 20,20 0 0 1 28,28 Z"
       fill="#bac7db"
       stroke="#4b4c4e"
       stroke-width="3"
       id="path36" />
  </svg>
  <path
     fill="#000000"
     d="m -218.4,-150.23 v 0 q -1.39,0 -2.16,-0.86 -0.76,-0.85 -0.76,-2.42 v 0 q 0,-1.62 0.77,-2.49 0.78,-0.88 2.22,-0.88 v 0 q 0.46,0 0.92,0.1 0.46,0.1 0.73,0.23 v 0 l -0.3,0.83 q -0.32,-0.13 -0.7,-0.22 -0.38,-0.08 -0.68,-0.08 v 0 q -1.95,0 -1.95,2.49 v 0 q 0,1.19 0.47,1.82 0.48,0.63 1.42,0.63 v 0 q 0.8,0 1.64,-0.34 v 0 0.86 q -0.64,0.33 -1.62,0.33 z m 7.82,-0.11 h -0.72 l -0.2,-0.92 h -0.04 q -0.48,0.6 -0.96,0.82 -0.48,0.21 -1.19,0.21 v 0 q -0.96,0 -1.5,-0.49 -0.54,-0.49 -0.54,-1.4 v 0 q 0,-1.95 3.11,-2.04 v 0 l 1.09,-0.03 v -0.4 q 0,-0.76 -0.33,-1.12 -0.32,-0.36 -1.04,-0.36 v 0 q -0.8,0 -1.81,0.49 v 0 l -0.3,-0.74 q 0.47,-0.26 1.04,-0.41 0.56,-0.14 1.13,-0.14 v 0 q 1.15,0 1.7,0.51 0.56,0.51 0.56,1.63 v 0 z m -2.92,-0.69 v 0 q 0.91,0 1.43,-0.5 0.52,-0.5 0.52,-1.39 v 0 -0.58 l -0.98,0.04 q -1.16,0.04 -1.67,0.36 -0.51,0.32 -0.51,0.99 v 0 q 0,0.53 0.32,0.8 0.32,0.28 0.89,0.28 z m 14.08,0.69 h -0.97 v -4.18 q 0,-0.77 -0.33,-1.15 -0.33,-0.39 -1.02,-0.39 v 0 q -0.91,0 -1.34,0.52 -0.44,0.53 -0.44,1.61 v 0 3.59 h -0.97 v -4.18 q 0,-0.77 -0.33,-1.15 -0.32,-0.39 -1.02,-0.39 v 0 q -0.92,0 -1.34,0.55 -0.43,0.55 -0.43,1.8 v 0 3.37 h -0.97 v -6.43 h 0.79 l 0.16,0.88 h 0.05 q 0.27,-0.47 0.77,-0.73 0.51,-0.26 1.13,-0.26 v 0 q 1.5,0 1.97,1.09 v 0 h 0.04 q 0.29,-0.51 0.83,-0.8 0.55,-0.29 1.25,-0.29 v 0 q 1.09,0 1.63,0.56 0.54,0.56 0.54,1.79 v 0 z m 4.99,0.11 v 0 q -0.62,0 -1.14,-0.23 -0.52,-0.23 -0.87,-0.71 v 0 h -0.07 q 0.07,0.56 0.07,1.07 v 0 2.64 h -0.98 v -9.31 h 0.79 l 0.14,0.88 h 0.05 q 0.37,-0.53 0.87,-0.76 0.5,-0.23 1.14,-0.23 v 0 q 1.28,0 1.97,0.87 0.7,0.87 0.7,2.45 v 0 q 0,1.58 -0.71,2.46 -0.7,0.87 -1.96,0.87 z m -0.14,-5.83 v 0 q -0.98,0 -1.42,0.55 -0.44,0.54 -0.45,1.73 v 0 0.22 q 0,1.35 0.45,1.93 0.45,0.59 1.45,0.59 v 0 q 0.83,0 1.3,-0.68 0.47,-0.67 0.47,-1.85 v 0 q 0,-1.2 -0.47,-1.85 -0.47,-0.64 -1.33,-0.64 z m 4.44,-0.71 h 0.98 v 4.17 q 0,0.78 0.36,1.17 0.36,0.39 1.12,0.39 v 0 q 1.01,0 1.47,-0.55 0.47,-0.55 0.47,-1.8 v 0 -3.38 h 0.97 v 6.43 h -0.8 l -0.14,-0.87 h -0.06 q -0.29,0.48 -0.82,0.73 -0.54,0.25 -1.21,0.25 v 0 q -1.18,0 -1.76,-0.55 -0.58,-0.56 -0.58,-1.79 v 0 z m 11.58,4.67 v 0 q 0,0.9 -0.67,1.39 -0.67,0.48 -1.88,0.48 v 0 q -1.28,0 -1.99,-0.4 v 0 -0.9 q 0.46,0.23 0.99,0.36 0.53,0.14 1.03,0.14 v 0 q 0.76,0 1.17,-0.24 0.41,-0.25 0.41,-0.74 v 0 q 0,-0.38 -0.33,-0.65 -0.32,-0.26 -1.27,-0.63 v 0 q -0.89,-0.33 -1.27,-0.58 -0.38,-0.25 -0.56,-0.56 -0.19,-0.32 -0.19,-0.76 v 0 q 0,-0.79 0.64,-1.24 0.64,-0.45 1.75,-0.45 v 0 q 1.04,0 2.03,0.42 v 0 l -0.35,0.79 q -0.96,-0.4 -1.75,-0.4 v 0 q -0.69,0 -1.04,0.22 -0.35,0.21 -0.35,0.6 v 0 q 0,0.25 0.13,0.43 0.13,0.19 0.42,0.35 0.3,0.16 1.13,0.47 v 0 q 1.14,0.42 1.54,0.84 0.41,0.42 0.41,1.06 z"
     id="path37"
     style="display:inline" />
  <svg
     width="100"
     height="60"
     viewBox="-50 -30 100 60"
     x="270"
     y="-190"
     version="1.1"
     id="svg38"
     style="display:inline"
     inkscape:label="datacenter">
    <path
       d="M -28,28 A 20,20 0 0 1 -32.7,-11.44 20,20 0 0 1 0,-23.2 20,20 0 0 1 32.7,-11.44 20,20 0 0 1 28,28 Z"
       fill="#bac7db"
       stroke="#4b4c4e"
       stroke-width="3"
       id="path38" />
  </svg>
  <path
     fill="#000000"
     d="m 319,-150.34 -0.13,-0.87 h -0.05 q -0.68,0.98 -2.02,0.98 v 0 q -1.26,0 -1.96,-0.86 -0.7,-0.86 -0.7,-2.45 v 0 q 0,-1.59 0.7,-2.46 0.71,-0.88 1.96,-0.88 v 0 q 1.31,0 2,0.95 v 0 h 0.08 l -0.04,-0.47 -0.02,-0.45 v -2.61 h 0.97 v 9.12 z m -2.08,-0.7 v 0 q 1,0 1.45,-0.54 0.45,-0.55 0.45,-1.75 v 0 -0.21 q 0,-1.36 -0.46,-1.95 -0.45,-0.58 -1.45,-0.58 v 0 q -0.85,0 -1.31,0.67 -0.45,0.66 -0.45,1.87 v 0 q 0,1.23 0.45,1.86 0.45,0.63 1.32,0.63 z m 7.5,0.81 v 0 q -1.4,0 -2.16,-0.86 -0.77,-0.85 -0.77,-2.42 v 0 q 0,-1.62 0.78,-2.49 0.78,-0.88 2.21,-0.88 v 0 q 0.47,0 0.93,0.1 0.46,0.1 0.72,0.23 v 0 l -0.29,0.83 q -0.33,-0.13 -0.71,-0.22 -0.38,-0.08 -0.67,-0.08 v 0 q -1.96,0 -1.96,2.49 v 0 q 0,1.19 0.48,1.82 0.48,0.63 1.41,0.63 v 0 q 0.81,0 1.65,-0.34 v 0 0.86 q -0.64,0.33 -1.62,0.33 z"
     id="path39"
     style="display:inline" />
  <path
     d="m 20,-298.34 a 20,20 0 0 1 20,-20 h 80 a 20,20 0 0 1 20,20 V -40 a 20,20 0 0 1 -20,20 H 40 A 20,20 0 0 1 20,-40 Z"
     fill="none"
     stroke="#ebebeb"
     stroke-width="2"
     id="path40"
     style="display:inline"
     inkscape:label="core-status" />
  <rect
     x="43.66333"
     y="-328.55542"
     width="72.67334"
     height="20.427246"
     fill="#ffffff"
     id="rect40"
     style="display:inline" />
  <path
     d="m 68.16,-312.38 v 0 q -3.82,0 -3.82,-4.19 v 0 q 0,-2.09 1.04,-3.19 1.04,-1.1 2.98,-1.1 v 0 q 1.42,0 2.55,0.55 v 0 l -0.66,1.73 q -0.53,-0.21 -0.98,-0.35 -0.46,-0.13 -0.91,-0.13 v 0 q -1.75,0 -1.75,2.47 v 0 q 0,2.4 1.75,2.4 v 0 q 0.64,0 1.19,-0.17 0.55,-0.17 1.1,-0.54 v 0 1.92 q -0.54,0.34 -1.09,0.47 -0.56,0.13 -1.4,0.13 z m 6.17,-4.25 v 0 q 0,1.21 0.4,1.84 0.4,0.62 1.3,0.62 v 0 q 0.89,0 1.28,-0.62 0.39,-0.62 0.39,-1.84 v 0 q 0,-1.22 -0.39,-1.83 -0.4,-0.6 -1.3,-0.6 v 0 q -0.89,0 -1.29,0.6 -0.39,0.61 -0.39,1.83 z m 5.66,0 v 0 q 0,2 -1.06,3.13 -1.05,1.12 -2.93,1.12 v 0 q -1.18,0 -2.08,-0.51 -0.9,-0.52 -1.39,-1.49 -0.48,-0.96 -0.48,-2.25 v 0 q 0,-2.01 1.05,-3.12 1.04,-1.11 2.94,-1.11 v 0 q 1.18,0 2.08,0.51 0.9,0.51 1.39,1.47 0.48,0.96 0.48,2.25 z m 6.42,-4.23 v 0 q 0.45,0 0.75,0.06 v 0 l -0.17,2.1 q -0.27,-0.08 -0.66,-0.08 v 0 q -1.07,0 -1.66,0.55 -0.6,0.55 -0.6,1.54 v 0 4.17 h -2.24 v -8.19 h 1.7 l 0.33,1.38 h 0.11 q 0.38,-0.69 1.03,-1.11 0.64,-0.42 1.41,-0.42 z m 5.63,1.58 v 0 q -0.71,0 -1.12,0.45 -0.4,0.46 -0.46,1.28 v 0 h 3.14 q -0.02,-0.82 -0.43,-1.28 -0.42,-0.45 -1.13,-0.45 z m 0.31,6.9 v 0 q -1.98,0 -3.09,-1.09 -1.11,-1.09 -1.11,-3.09 v 0 q 0,-2.06 1.03,-3.18 1.03,-1.12 2.84,-1.12 v 0 q 1.74,0 2.71,0.98 0.96,0.99 0.96,2.74 v 0 1.08 h -5.28 q 0.04,0.95 0.57,1.49 0.52,0.53 1.47,0.53 v 0 q 0.74,0 1.4,-0.15 0.66,-0.16 1.38,-0.49 v 0 1.73 q -0.59,0.29 -1.25,0.43 -0.67,0.14 -1.63,0.14 z"
     id="path41"
     style="display:inline" />
  <path
     style="fill:#000000;stroke:#000000;stroke-width:2;stroke-dasharray:none;stroke-opacity:1;marker-end:url(#Triangle)"
     d="m 99.75685,-233.9727 85.4668,35.68086"
     id="path47"
     inkscape:label="core1-dc" />
  <path
     style="fill:#000000;stroke:#000000;stroke-width:1.99318;stroke-dasharray:none;stroke-opacity:1;marker-end:url(#Triangle-4)"
     d="M 99.53199,-84.009835 184.96928,-119.4602"
     id="path47-5"
     inkscape:label="core2-dc" />
  <path
     style="fill:#000000;stroke:#000000;stroke-width:1.91758;stroke-dasharray:none;stroke-opacity:1;marker-start:url(#Triangle)"
     d="m 193.41759,-194.68257 79.1187,32.59165"
     id="path47-2"
     inkscape:label="dc-core1" />
  <path
     style="fill:#000000;stroke:#000000;stroke-width:2;stroke-dasharray:none;stroke-opacity:1;marker-start:url(#Triangle-8)"
     d="m 192.32036,-122.30619 78.41279,-26.40055"
     id="path47-2-3"
     inkscape:label="dc-core2" />
  <path
     style="fill:#000000;stroke:#000000;stroke-width:2.2093;stroke-dasharray:none;stroke-opacity:1;marker-end:url(#Triangle-44)"
     d="m 58.651759,-235.03041 -104.375864,35.65177"
     id="path47-55"
     inkscape:label="core1-campus" />
  <path
     style="fill:#000000;stroke:#000000;stroke-width:2.20176;stroke-dasharray:none;stroke-opacity:1;marker-end:url(#Triangle-4-7)"
     d="M 58.926368,-85.18981 -45.413457,-120.61127"
     id="path47-5-6"
     inkscape:label="core2-campus" />
  <path
     style="fill:#000000;stroke:#000000;stroke-width:2.11825;stroke-dasharray:none;stroke-opacity:1;marker-start:url(#Triangle-44)"
     d="m -55.730909,-195.77231 -96.623281,32.56508"
     id="path47-2-32"
     inkscape:label="campus-core1" />
  <path
     style="fill:#000000;stroke:#000000;stroke-width:2.2093;stroke-dasharray:none;stroke-opacity:1;marker-start:url(#Triangle-8-3)"
     d="m -54.390923,-123.45494 -95.761187,-26.37903"
     id="path47-2-3-6"
     inkscape:label="campus-core2" />
  <path
     style="fill:#000000;stroke:#000000;stroke-width:2;stroke-dasharray:none;stroke-opacity:1;marker-end:url(#Triangle)"
     d="m 80.632986,-219.77328 -0.294276,53.47761"
     id="path48"
     inkscape:label="core1-core2" />
  <path
     style="fill:#000000;stroke:#000000;stroke-width:2;stroke-dasharray:none;stroke-opacity:1;marker-start:url(#Triangle)"
     d="m 80.264575,-157.02287 -0.284149,56.78898"
     id="path48-7"
     inkscape:label="core2-core1" />
</svg>
